<svg xmlns="http://www.w3.org/2000/svg" version="1.1" id="Layer_1" x="0" y="0" xml:space="preserve" width="294.83" height="83.26"><style type="text/css" id="style2">.st0{fill:#272d63}.st3{fill:#282e68}</style><g id="g78" transform="translate(-452.59 -458.37)"><g id="g20"><g id="g16"><g id="g14"><path class="st0" d="M524.65 522.28h-69.93c.52.55 1.11 1.02 1.79 1.41l29.25 16.89c2.43 1.4 5.43 1.4 7.85 0l29.26-16.89c.66-.39 1.27-.86 1.78-1.41z" id="path4" style="fill:#272d63"/><path class="st0" d="M524.65 477.72h-69.93c.52-.55 1.11-1.02 1.79-1.41l29.25-16.89c2.43-1.4 5.43-1.4 7.85 0l29.26 16.89c.66.39 1.27.86 1.78 1.41z" id="path6" style="fill:#272d63"/><g id="g12"><path id="rect8" style="fill:none" d="M465.13 495.83h49.1v8.35h-49.1z"/><path d="M523.39 486.06h-67.41c-1.88 0-3.39 1.53-3.39 3.4v21.08c0 1.88 1.52 3.4 3.39 3.4h67.41c1.88 0 3.4-1.53 3.4-3.4v-21.08c0-1.88-1.52-3.4-3.4-3.4zm-9.16 16.15c0 1.08-.88 1.96-1.96 1.96H467.1c-1.09 0-1.97-.88-1.97-1.96v-4.42c0-1.08.88-1.96 1.97-1.96h45.17c1.08 0 1.96.88 1.96 1.96z" id="path10" style="fill:#25b6bc"/></g></g></g></g><g id="g76"><g id="g42"><g id="g40"><g id="g38"><g id="g24"><path class="st0" d="M550.63 501.19v-23.46h-6.54v29.28h19.02v-5.82z" id="path22" style="fill:#272d63"/></g><g id="g28"><path class="st0" d="M614.69 477.72v16.18c0 2.35-.54 4.19-1.6 5.55-1.08 1.36-2.54 2.03-4.38 2.03-1.84 0-3.31-.67-4.4-2.03-1.08-1.36-1.63-3.2-1.63-5.55v-16.18h-6.54v16.38c0 4.22 1.18 7.47 3.54 9.76 2.36 2.28 5.37 3.43 9.03 3.43 3.66 0 6.66-1.13 9.01-3.41 2.33-2.28 3.51-5.54 3.51-9.79v-16.38h-6.54z" id="path26" style="fill:#272d63"/></g><g id="g32"><path class="st0" d="M677.81 477.72v18.86l-14.36-18.86h-6.12V507h6.54v-18.35L677.81 507h6.54v-29.28z" id="path30" style="fill:#272d63"/></g><g id="g36"><path class="st0" d="M743.23 481.57c-2.79-2.55-6.8-3.84-12.02-3.84h-10.34v29.28h10.01c5.58 0 9.74-1.33 12.46-3.98 2.73-2.65 4.08-6.26 4.08-10.81-.01-4.55-1.4-8.11-4.19-10.65zm-4.79 17.4c-1.61 1.5-3.9 2.26-6.89 2.26h-4.14v-17.8h3.64c3.32 0 5.78.77 7.39 2.32 1.6 1.55 2.41 3.76 2.41 6.64-.01 2.87-.81 5.07-2.41 6.58z" id="path34" style="fill:#272d63"/></g></g></g></g><g id="g74"><path class="st3" d="M549.34 514.91v1.45h-3.63v1.5h3.26v1.39h-3.26v1.51h3.74v1.44h-5.37v-7.29z" id="path44" style="fill:#282e68"/><path class="st3" d="M561.27 514.91h1.96l-2.27 3.51 2.46 3.77h-1.98l-1.55-2.4-1.54 2.4h-1.96l2.45-3.73-2.28-3.56h1.95l1.39 2.16z" id="path46" style="fill:#282e68"/><path class="st3" d="M574.04 520.76c.8 0 1.45-.32 1.96-.95l1.04 1.07c-.83.93-1.8 1.4-2.93 1.4-1.12 0-2.05-.35-2.77-1.06-.73-.71-1.09-1.6-1.09-2.68s.37-1.98 1.11-2.71c.74-.72 1.65-1.08 2.72-1.08 1.2 0 2.2.46 3 1.37l-1.01 1.15c-.51-.64-1.15-.96-1.92-.96-.61 0-1.13.2-1.57.6-.43.4-.65.94-.65 1.62 0 .68.21 1.22.62 1.63.4.39.9.6 1.49.6z" id="path48" style="fill:#282e68"/><path class="st3" d="M589.84 514.91v1.45h-3.63v1.5h3.26v1.39h-3.26v1.51h3.74v1.44h-5.37v-7.29z" id="path50" style="fill:#282e68"/><path class="st3" d="M597.67 522.19v-7.29h1.63v5.84h3.11v1.45z" id="path52" style="fill:#282e68"/><path class="st3" d="M609.86 522.19v-7.29h1.63v5.84h3.11v1.45z" id="path54" style="fill:#282e68"/><path class="st3" d="M627.31 514.91v1.45h-3.63v1.5h3.26v1.39h-3.26v1.51h3.74v1.44h-5.37v-7.29z" id="path56" style="fill:#282e68"/><path class="st3" d="M640.24 514.91h1.63v7.29h-1.63l-3.47-4.57v4.57h-1.63v-7.29h1.52l3.58 4.69z" id="path58" style="fill:#282e68"/><path class="st3" d="M653.28 520.76c.8 0 1.45-.32 1.96-.95l1.04 1.07c-.83.93-1.8 1.4-2.93 1.4-1.12 0-2.05-.35-2.77-1.06-.73-.71-1.09-1.6-1.09-2.68s.37-1.98 1.11-2.71c.74-.72 1.65-1.08 2.72-1.08 1.2 0 2.2.46 3 1.37l-1.01 1.15c-.51-.64-1.15-.96-1.92-.96-.61 0-1.13.2-1.57.6-.43.4-.65.94-.65 1.62 0 .68.2 1.22.62 1.63.4.39.9.6 1.49.6z" id="path60" style="fill:#282e68"/><path class="st3" d="M669.08 514.91v1.45h-3.63v1.5h3.26v1.39h-3.26v1.51h3.74v1.44h-5.37v-7.29z" id="path62" style="fill:#282e68"/><path class="st3" d="M689.28 520.76c.8 0 1.45-.32 1.96-.95l1.04 1.07c-.83.93-1.8 1.4-2.93 1.4-1.12 0-2.05-.35-2.77-1.06-.73-.71-1.09-1.6-1.09-2.68s.37-1.98 1.11-2.71c.74-.72 1.65-1.08 2.72-1.08 1.2 0 2.2.46 3 1.37l-1.01 1.15c-.51-.64-1.15-.96-1.92-.96-.61 0-1.13.2-1.57.6-.44.4-.65.94-.65 1.62 0 .68.2 1.22.62 1.63.41.39.91.6 1.49.6z" id="path64" style="fill:#282e68"/><path class="st3" d="M699.83 522.19v-7.29h1.63v5.84h3.11v1.45z" id="path66" style="fill:#282e68"/><path class="st3" d="M717.96 521.19c-.74.72-1.64 1.08-2.72 1.08-1.08 0-1.98-.36-2.72-1.08-.74-.72-1.1-1.62-1.1-2.69 0-1.07.37-1.97 1.1-2.69.74-.72 1.64-1.08 2.72-1.08 1.08 0 1.98.36 2.72 1.08.74.72 1.1 1.62 1.1 2.69 0 1.07-.37 1.97-1.1 2.69zm-.56-2.68c0-.65-.21-1.2-.63-1.66-.42-.46-.93-.69-1.54-.69s-1.12.23-1.54.69c-.42.46-.63 1.01-.63 1.66 0 .65.21 1.2.63 1.66.42.46.93.68 1.54.68s1.12-.23 1.54-.68c.43-.46.63-1.01.63-1.66z" id="path68" style="fill:#282e68"/><path class="st3" d="M728.63 520.31c.27.34.64.51 1.09.51.46 0 .82-.17 1.09-.51.27-.34.4-.8.4-1.38v-4.03h1.63v4.08c0 1.06-.29 1.87-.88 2.43-.58.57-1.33.85-2.24.85-.91 0-1.66-.29-2.25-.86-.59-.57-.88-1.38-.88-2.43v-4.08h1.63v4.03c.01.59.14 1.06.41 1.39z" id="path70" style="fill:#282e68"/><path class="st3" d="M746.37 515.86c.69.64 1.04 1.52 1.04 2.65s-.34 2.03-1.02 2.69c-.68.66-1.71.99-3.1.99h-2.49v-7.29h2.58c1.3.01 2.3.32 2.99.96zm-1.19 4.33c.4-.38.6-.92.6-1.64 0-.72-.2-1.27-.6-1.65-.4-.39-1.01-.58-1.84-.58h-.91v4.43h1.03c.75.01 1.32-.18 1.72-.56z" id="path72" style="fill:#282e68"/></g></g></g></svg>
